<?xml version="1.0" encoding="UTF-8"?>
<!DOCTYPE svg PUBLIC "-//W3C//DTD SVG 1.1//EN" "http://www.w3.org/Graphics/SVG/1.1/DTD/svg11.dtd">
<!-- Creator: CorelDRAW -->
<svg xmlns="http://www.w3.org/2000/svg" xml:space="preserve" width="111px" height="119px" version="1.1" style="shape-rendering:geometricPrecision; text-rendering:geometricPrecision; image-rendering:optimizeQuality; fill-rule:evenodd; clip-rule:evenodd"
viewBox="0 0 5.33 5.69"
 xmlns:xlink="http://www.w3.org/1999/xlink"
 xmlns:xodm="http://www.corel.com/coreldraw/odm/2003">
 <defs>
  <style type="text/css">
   <![CDATA[
    .fil2 {fill:black}
    .fil0 {fill:#2A7B39}
    .fil1 {fill:#2DAF4F}
    .fil7 {fill:#00D503;fill-rule:nonzero}
    .fil9 {fill:#019902;fill-rule:nonzero}
    .fil10 {fill:#01E300;fill-rule:nonzero}
    .fil6 {fill:#01E501;fill-rule:nonzero}
    .fil12 {fill:#03BE02;fill-rule:nonzero}
    .fil3 {fill:#051D27;fill-rule:nonzero}
    .fil5 {fill:#05A902;fill-rule:nonzero}
    .fil4 {fill:#06E403;fill-rule:nonzero}
    .fil8 {fill:#09FD02;fill-rule:nonzero}
    .fil11 {fill:#57FD7F;fill-rule:nonzero}
   ]]>
  </style>
 </defs>
 <g id="Camada_x0020_1">
  <metadata id="CorelCorpID_0Corel-Layer"/>
  <rect class="fil0" y="0.21" width="5.33" height="5.49" rx="0.19" ry="0.36"/>
  <rect class="fil1" width="5.33" height="5.49" rx="0.19" ry="0.36"/>
  <rect class="fil2" x="0.15" y="0.15" width="5.03" height="5.19" rx="0.2" ry="0.2"/>
  <g id="_1720508608912">
   <g id="Layer_1" data-name="Layer 1">
    <path class="fil3" d="M2.65 4.54l0 0c-0.04,-0.01 -0.07,-0.02 -0.1,-0.05l-1.7 -1.9c-0.02,-0.03 -0.03,-0.06 -0.03,-0.09 0,-0.02 0,-0.05 0.01,-0.07l0.52 -0.86c0.01,-0.02 0.03,-0.04 0.06,-0.05l0.52 -0.23c0.01,0 0.02,-0.01 0.03,-0.01l0.68 -0.12c0,0 0.01,0 0.02,0 0.01,0 0.02,0 0.02,0l0.67 0.12c0.01,0 0.02,0.01 0.03,0.01l0.54 0.23 0.01 0 0 0c0.01,0.01 0.02,0.02 0.03,0.03l0 0c0.01,0 0.01,0.01 0.02,0.02l0 0 0 0.01 0.51 0.86c0.01,0.02 0.02,0.05 0.02,0.07 0,0.03 -0.01,0.06 -0.03,0.09l-1.73 1.89c-0.03,0.03 -0.06,0.05 -0.1,0.05 0,0 0,0 0,0l0 0z"/>
    <path class="fil4" d="M1.88 2.06c-0.12,0.34 -0.08,0.66 0.1,0.97 0.33,-0.15 0.57,-0.41 0.7,-0.82 -0.27,-0.14 -0.54,-0.2 -0.8,-0.15z"/>
    <path class="fil5" d="M4.38 2.51l-0.51 -0.86c-0.3,0.05 -0.42,0.21 -0.43,0.43 0.21,0.3 0.53,0.43 0.94,0.43z"/>
    <path class="fil6" d="M2.67 2.22c0.01,0.37 0.2,0.64 0.59,0.8l0 0c0.22,-0.27 0.29,-0.58 0.18,-0.94 -0.3,-0.15 -0.56,-0.11 -0.77,0.14z"/>
    <path class="fil7" d="M1.98 3.03c0.43,0.21 0.85,0.2 1.28,-0.01l-0.59 -0.8 -0.69 0.81z"/>
    <path class="fil8" d="M1.98 3.03c0.05,0.44 0.31,0.9 0.67,1.37 0.36,-0.43 0.6,-0.88 0.61,-1.38l-1.28 0.01z"/>
    <path class="fil9" d="M3.26 3.02l-0.61 1.38 1.73 -1.89c-0.45,0.02 -0.85,0.13 -1.12,0.51z"/>
    <path class="fil10" d="M0.95 2.5l1.7 1.9 -0.67 -1.37c-0.19,-0.38 -0.59,-0.48 -1.03,-0.53z"/>
    <path class="fil11" d="M1.46 1.64l-0.51 0.86c0.45,0.06 0.78,-0.06 0.94,-0.43 0.11,-0.25 -0.05,-0.38 -0.43,-0.43z"/>
    <polygon class="fil8" points="0.95,2.5 1.98,3.03 1.89,2.07 "/>
    <polygon class="fil8" points="3.33,1.41 2.66,1.29 1.98,1.41 1.46,1.64 1.89,2.07 2.67,2.22 3.44,2.08 3.87,1.65 "/>
    <polygon class="fil12" points="3.26,3.02 4.38,2.51 3.44,2.08 "/>
    <polygon class="fil11" points="1.49,1.68 1.99,1.42 2.66,1.29 1.98,1.41 1.46,1.64 "/>
    <polygon class="fil11" points="1.89,2.07 1.98,3.03 1.83,2.08 "/>
    <polygon class="fil11" points="1.89,2.07 2.67,2.22 2.65,2.24 "/>
    <polygon class="fil11" points="3.87,1.65 3.37,2.09 3.44,2.08 "/>
   </g>
  </g>
 </g>
</svg>
