<?xml version="1.0" encoding="UTF-8"?>
<!DOCTYPE svg PUBLIC "-//W3C//DTD SVG 1.1//EN" "http://www.w3.org/Graphics/SVG/1.1/DTD/svg11.dtd">
<!-- Creator: CorelDRAW -->
<svg xmlns="http://www.w3.org/2000/svg" xml:space="preserve" width="111px" height="119px" version="1.1" style="shape-rendering:geometricPrecision; text-rendering:geometricPrecision; image-rendering:optimizeQuality; fill-rule:evenodd; clip-rule:evenodd"
viewBox="0 0 5.33 5.69"
 xmlns:xlink="http://www.w3.org/1999/xlink"
 xmlns:xodm="http://www.corel.com/coreldraw/odm/2003">
 <defs>
  <style type="text/css">
   <![CDATA[
    .fil0 {fill:#39578B}
    .fil1 {fill:#4F2222}
    .fil2 {fill:#58A3FE}
   ]]>
  </style>
 </defs>
 <g id="Camada_x0020_1">
  <metadata id="CorelCorpID_0Corel-Layer"/>
  <g id="_1720501079696">
   <rect class="fil0" y="0.21" width="5.33" height="5.49" rx="0.19" ry="0.36"/>
   <rect class="fil1" width="5.33" height="5.49" rx="0.19" ry="0.36"/>
   <g>
    <path class="fil2" d="M2.14 2.57c0.38,0.01 0.16,0.02 0.3,-0.15 0.24,-0.28 0.61,0 0.41,0.22l-0.34 0.16 0.04 0.23c0.18,-0.01 0.04,-0.02 0.24,-0.11 0.12,-0.06 0.16,-0.03 0.27,-0.12 0.29,-0.26 0.09,-0.88 -0.57,-0.72 -0.24,0.07 -0.33,0.22 -0.35,0.49z"/>
    <path class="fil2" d="M2.5 3.42c0.41,0.1 0.41,-0.37 0,-0.27 -0.07,0.15 -0.07,0.11 0,0.27z"/>
   </g>
  </g>
 </g>
</svg>
